<svg width="305" height="306" viewBox="0 0 305 306" fill="none" xmlns="http://www.w3.org/2000/svg">
<g clip-path="url(#clip0_14_1959)">
<path d="M142.75 164.048V143.812C142.75 142.393 142.813 142.33 144.243 142.33H154.755C154.944 142.32 155.133 142.32 155.322 142.33C155.911 142.383 156.069 142.509 156.079 143.108C156.079 144.159 156.079 145.21 156.079 146.198C156.079 146.577 156.079 146.955 156.079 147.334C156.113 147.465 156.17 147.59 156.247 147.702C156.337 147.643 156.418 147.572 156.489 147.491C157.963 145.511 159.885 143.907 162.097 142.81C164.31 141.714 166.75 141.157 169.219 141.184C172.613 141.116 175.936 142.161 178.68 144.159C179.714 144.994 180.661 145.93 181.507 146.955C183.191 149.086 184.279 151.625 184.661 154.314C184.976 156.073 185.134 157.856 185.134 159.643C185.186 167.874 185.134 176.105 185.134 184.346C185.134 185.891 184.997 186.038 183.452 186.038H172.436C172.208 186.054 171.98 186.054 171.752 186.038C171.539 186.03 171.337 185.939 171.189 185.783C171.042 185.628 170.961 185.422 170.964 185.208C170.948 184.903 170.948 184.598 170.964 184.293C170.964 176.529 170.964 168.753 170.964 160.968C170.98 159.488 170.667 158.023 170.049 156.679C169.622 155.678 168.907 154.827 167.996 154.232C167.085 153.637 166.018 153.325 164.93 153.336C163.884 153.272 162.835 153.426 161.851 153.788C160.867 154.15 159.968 154.712 159.212 155.438C158.094 156.544 157.33 157.956 157.015 159.496C156.683 160.979 156.535 162.497 156.573 164.016C156.573 170.88 156.573 177.744 156.573 184.598C156.573 186.059 156.573 186.059 155.112 186.059H144.359C144.128 186.075 143.896 186.075 143.665 186.059C142.929 185.986 142.761 185.817 142.75 185.008C142.75 182.569 142.75 180.131 142.75 177.65V164.048Z" fill="#F7931E"/>
<path d="M134.824 164.048V184.514C134.824 185.828 134.824 185.828 133.521 185.828H122.2C121.012 185.828 121.012 185.828 121.012 184.619C121.012 170.905 121.012 157.187 121.012 143.465V143.35C121.012 142.299 121.012 142.299 122.063 142.299H133.952C134.803 142.299 134.824 142.351 134.856 143.224C134.856 143.497 134.856 143.76 134.856 144.033L134.824 164.048Z" fill="#F7931E"/>
<path d="M128.013 120.812C129.085 120.782 130.153 120.968 131.152 121.359C132.151 121.751 133.061 122.339 133.828 123.09C134.595 123.841 135.202 124.738 135.615 125.729C136.027 126.72 136.235 127.783 136.228 128.856C136.22 129.929 135.996 130.99 135.569 131.974C135.143 132.959 134.522 133.847 133.745 134.587C132.967 135.326 132.049 135.902 131.044 136.278C130.039 136.655 128.969 136.826 127.897 136.78C126.825 136.81 125.757 136.624 124.758 136.233C123.759 135.842 122.848 135.253 122.082 134.502C121.315 133.752 120.707 132.854 120.295 131.864C119.883 130.873 119.675 129.809 119.682 128.736C119.69 127.663 119.914 126.603 120.34 125.618C120.767 124.634 121.388 123.745 122.165 123.006C122.943 122.266 123.861 121.691 124.866 121.314C125.87 120.937 126.941 120.767 128.013 120.812Z" fill="#F7931E"/>
<path d="M102.196 103.09H1.57677V203.709H102.196V103.09Z" fill="#F7931E"/>
<path d="M102.196 203.698H1.57677V304.317H102.196V203.698Z" fill="#F7931E"/>
<path d="M303.423 203.698H202.804V304.317H303.423V203.698Z" fill="#75CCB2"/>
<path d="M102.196 2.47058H1.57677V103.09H102.196V2.47058Z" fill="#75CCB2"/>
<path d="M303.423 2.47058H202.804V103.09H303.423V2.47058Z" fill="#F7931E"/>
<path d="M303.423 103.09H202.804V203.709H303.423V103.09Z" fill="#75CCB2"/>
<path d="M51.8863 2.47058L1.57677 103.09H102.196L51.8863 2.47058Z" fill="#F7931E"/>
<path d="M253.114 203.698L202.804 304.317H303.423L253.114 203.698Z" fill="#F7931E"/>
<path d="M253.114 52.7801C246.507 52.7801 239.966 54.0814 233.863 56.6099C227.76 59.1383 222.214 62.8442 217.543 67.516C212.872 72.1878 209.168 77.734 206.641 83.8377C204.113 89.9415 202.813 96.4833 202.815 103.09H303.381C303.381 89.7539 298.087 76.9639 288.661 67.5302C279.235 58.0966 266.449 52.7912 253.114 52.7801Z" fill="#75CCB2"/>
<path d="M253.114 14.1176C242.86 14.1176 233.026 18.191 225.775 25.4416C218.525 32.6922 214.451 42.5261 214.451 52.7801H291.818C291.818 47.6993 290.817 42.6684 288.871 37.9749C286.926 33.2814 284.074 29.0174 280.479 25.4267C276.885 21.836 272.618 18.9891 267.922 17.0486C263.227 15.1081 258.194 14.1121 253.114 14.1176Z" fill="#75CCB2"/>
<path d="M102.196 2.47058V103.09L202.804 2.47058H102.196Z" fill="#75CCB2"/>
<path d="M102.196 103.09H202.804V2.47058L102.196 103.09Z" fill="#F7931E"/>
<path d="M102.187 254.015L51.8809 203.708L1.57457 254.015L51.8809 304.321L102.187 254.015Z" fill="#75CCB2"/>
<path d="M202.804 304.317V203.698L102.196 304.317H202.804Z" fill="#75CCB2"/>
<path d="M202.804 203.698H102.196V304.317L202.804 203.698Z" fill="#F7931E"/>
<path d="M51.8863 179.647C66.3826 179.647 78.1342 167.895 78.1342 153.399C78.1342 138.903 66.3826 127.151 51.8863 127.151C37.3899 127.151 25.6383 138.903 25.6383 153.399C25.6383 167.895 37.3899 179.647 51.8863 179.647Z" fill="#75CCB2"/>
<path d="M253.114 179.647C267.61 179.647 279.362 167.895 279.362 153.399C279.362 138.903 267.61 127.151 253.114 127.151C238.617 127.151 226.866 138.903 226.866 153.399C226.866 167.895 238.617 179.647 253.114 179.647Z" fill="#F7931E"/>
<path d="M102.196 2.47058H1.57677V103.09H102.196V2.47058Z" stroke="white" stroke-width="3" stroke-miterlimit="10"/>
<path d="M202.815 2.47058H102.196V103.09H202.815V2.47058Z" stroke="white" stroke-width="3" stroke-miterlimit="10"/>
<path d="M303.423 2.47058H202.804V103.09H303.423V2.47058Z" stroke="white" stroke-width="3" stroke-miterlimit="10"/>
<path d="M102.196 103.09H1.57677V203.709H102.196V103.09Z" stroke="white" stroke-width="3" stroke-miterlimit="10"/>
<path d="M202.815 103.09H102.196V203.709H202.815V103.09Z" stroke="white" stroke-width="3" stroke-miterlimit="10"/>
<path d="M303.423 103.09H202.804V203.709H303.423V103.09Z" stroke="white" stroke-width="3" stroke-miterlimit="10"/>
<path d="M102.196 203.698H1.57677V304.317H102.196V203.698Z" stroke="white" stroke-width="3" stroke-miterlimit="10"/>
<path d="M202.815 203.698H102.196V304.317H202.815V203.698Z" stroke="white" stroke-width="3" stroke-miterlimit="10"/>
<path d="M303.423 203.698H202.804V304.317H303.423V203.698Z" stroke="white" stroke-width="3" stroke-miterlimit="10"/>
</g>
<defs>
<clipPath id="clip0_14_1959">
<rect width="305" height="305" fill="white" transform="translate(0 0.893799)"/>
</clipPath>
</defs>
</svg>
